<svg xmlns="http://www.w3.org/2000/svg" viewBox="0 0 200 200" width="200" height="200">
  <defs>
    <linearGradient id="sg" x1="0" y1="0" x2="0" y2="1">
      <stop offset="0%" stop-color="#D4A82A"/>
      <stop offset="100%" stop-color="#8B6010"/>
    </linearGradient>
    <linearGradient id="si" x1="0" y1="0" x2="0" y2="1">
      <stop offset="0%" stop-color="#1a1408"/>
      <stop offset="100%" stop-color="#0d0b06"/>
    </linearGradient>
    <linearGradient id="lk" x1="0" y1="0" x2="0" y2="1">
      <stop offset="0%" stop-color="#ECC84A"/>
      <stop offset="100%" stop-color="#C8920A"/>
    </linearGradient>
  </defs>
  <!-- Outer glow ring -->
  <circle cx="100" cy="100" r="90" fill="#C8982A" opacity="0.06"/>
  <!-- Shield outer -->
  <path d="M100 28 L158 50 L158 108 Q158 158 100 182 Q42 158 42 108 L42 50 Z" fill="url(#sg)" stroke="#ECC84A" stroke-width="1"/>
  <!-- Shield inner fill -->
  <path d="M100 38 L148 57 L148 107 Q148 151 100 172 Q52 151 52 107 L52 57 Z" fill="url(#si)"/>
  <!-- Shield inner border -->
  <path d="M100 44 L144 62 L144 107 Q144 147 100 167 Q56 147 56 107 L56 62 Z" fill="none" stroke="#C8982A" stroke-width="0.6" opacity="0.5"/>
  <!-- Lock shackle -->
  <path d="M86 98 L86 85 Q86 70 100 70 Q114 70 114 85 L114 98" fill="none" stroke="url(#lk)" stroke-width="5" stroke-linecap="round"/>
  <!-- Lock body -->
  <rect x="78" y="97" width="44" height="34" rx="7" fill="url(#lk)" stroke="#ECC84A" stroke-width="0.5"/>
  <!-- Keyhole circle -->
  <circle cx="100" cy="111" r="6.5" fill="#0a0a0f"/>
  <!-- Keyhole stem -->
  <rect x="97.5" y="111" width="5" height="10" rx="2.5" fill="#0a0a0f"/>
</svg>
